<svg preserveAspectRatio="none" width="100%" height="100%" overflow="visible" style="display: block;" viewBox="0 0 51 36" fill="none" xmlns="http://www.w3.org/2000/svg">
<g id="logo" clip-path="url(#clip0_0_107)">
<path id="Vector" d="M13.3302 1.28036C13.3303 1.11939 13.2954 0.960373 13.2279 0.814542C13.1605 0.66871 13.0621 0.53963 12.9398 0.436426C12.6953 0.205081 12.3718 0.0779482 12.0368 0.0815001C11.8039 0.0777152 11.5747 0.140609 11.3757 0.262907C11.1563 0.404038 10.9896 0.614936 10.902 0.862337L6.73792 10.2113L2.56339 0.843933C2.47193 0.611042 2.31112 0.412596 2.10319 0.276017C1.89526 0.139437 1.65047 0.0714677 1.40264 0.0815001C1.04762 0.0797394 0.703549 0.205539 0.431883 0.436426C0.296425 0.538007 0.186673 0.670514 0.111588 0.823126C0.0365043 0.975738 -0.00178187 1.14413 -0.000143417 1.31454C-0.00159484 1.4819 0.0349062 1.64738 0.106562 1.79829L5.31171 12.9771L3.45347 16.9839C3.37525 17.1552 3.32935 17.3397 3.31814 17.5281C3.3158 17.6859 3.35014 17.8421 3.41839 17.9841C3.48664 18.1261 3.5869 18.25 3.71112 18.3457C3.95592 18.5555 4.26721 18.6693 4.58819 18.6665C4.82374 18.6654 5.05373 18.5941 5.24924 18.4614C5.46267 18.3199 5.62871 18.1164 5.72551 17.8777L13.2235 1.79829C13.2945 1.63506 13.3308 1.45863 13.3302 1.28036Z" fill="var(--fill-0, #2963A3)"/>
<path id="Vector_2" d="M39.5071 12.5118C39.4991 12.6806 39.5262 12.8493 39.5867 13.0069C39.6472 13.1645 39.7398 13.3075 39.8584 13.4267C39.9819 13.5415 40.1266 13.6306 40.2843 13.6888C40.4419 13.747 40.6094 13.7732 40.7771 13.7659C41.1427 13.7818 41.5001 13.6536 41.7739 13.4083C41.9001 13.2914 42 13.1486 42.0669 12.9894C42.1338 12.8302 42.1661 12.6584 42.1617 12.4855V1.39078C42.1707 1.21082 42.143 1.03091 42.0804 0.862213C42.0177 0.693516 41.9213 0.539638 41.7973 0.410134C41.5162 0.179288 41.1644 0.054366 40.8021 0.0567642C40.4398 0.0591624 40.0897 0.188732 39.8116 0.423279C39.6855 0.5492 39.5869 0.700272 39.5219 0.866856C39.457 1.03344 39.4271 1.21188 39.4342 1.39078V7.79785C39.4342 8.94063 39.1149 9.85818 38.4764 10.5505C38.1492 10.8971 37.7522 11.1689 37.3123 11.3475C36.8723 11.5262 36.3996 11.6076 35.9259 11.5864C35.0289 11.5864 34.3635 11.3322 33.9297 10.8239C33.496 10.3156 33.28 9.52691 33.2817 8.45775V1.39078C33.2907 1.21082 33.2631 1.03091 33.2004 0.862213C33.1377 0.693516 33.0414 0.539638 32.9173 0.410134C32.7838 0.287229 32.6273 0.19252 32.457 0.13157C32.2867 0.0706199 32.1061 0.0446575 31.9258 0.0552077C31.7422 0.0441753 31.5583 0.0698474 31.3845 0.130753C31.2108 0.191658 31.0507 0.286599 30.9134 0.410134C30.7882 0.538795 30.6911 0.692539 30.6283 0.861447C30.5655 1.03036 30.5385 1.21068 30.549 1.39078V8.4893C30.549 12.0508 32.1504 13.8316 35.3533 13.8316C36.2041 13.8433 37.044 13.6371 37.7946 13.2322C38.5229 12.833 39.1186 12.2258 39.5071 11.4865V12.5118Z" fill="var(--fill-0, #2963A3)"/>
<path id="Vector_3" d="M15.3552 33.8915L14.5979 33.8363C13.8796 33.7819 13.3443 33.5549 12.9921 33.1553C12.6433 32.7557 12.4716 32.1274 12.4716 31.2729V24.6765H15.134C15.4484 24.7005 15.7605 24.6069 16.0111 24.4136C16.1173 24.3135 16.2001 24.1908 16.2537 24.0544C16.3073 23.918 16.3302 23.7713 16.3208 23.6249C16.3291 23.4786 16.3057 23.3322 16.2522 23.196C16.1987 23.0598 16.1164 22.937 16.0111 22.8362C15.7648 22.6326 15.4516 22.5303 15.134 22.5496H12.4612V19.7418C12.4713 19.5605 12.4428 19.3793 12.3777 19.2101C12.3126 19.0409 12.2124 18.8878 12.0838 18.7611C11.8094 18.5152 11.4509 18.3869 11.0844 18.4036C10.9053 18.3941 10.7262 18.4205 10.5573 18.4815C10.3885 18.5424 10.2332 18.6365 10.1006 18.7585C9.97543 18.8871 9.87832 19.0409 9.81556 19.2098C9.7528 19.3787 9.72579 19.559 9.73627 19.7391V22.5496H8.11747C7.79977 22.5298 7.48641 22.6321 7.2404 22.8362C7.13417 22.9364 7.05111 23.059 6.99713 23.1953C6.94315 23.3317 6.91958 23.4783 6.92809 23.6249C6.92809 24.326 7.32455 24.6765 8.11747 24.6765H9.73627V31.0836C9.73627 32.6269 10.0954 33.7968 10.8163 34.5855C11.5372 35.3743 12.6225 35.8265 14.08 35.9369L14.8087 35.9895C15.2322 36.0512 15.664 35.9699 16.0371 35.7581C16.1723 35.6683 16.2821 35.5445 16.3556 35.3988C16.4291 35.2531 16.4637 35.0906 16.4561 34.9273C16.4635 34.7953 16.4443 34.6631 16.3995 34.5388C16.3548 34.4145 16.2855 34.3007 16.1958 34.2043C15.9591 34.0063 15.6625 33.8959 15.3552 33.8915Z" fill="var(--fill-0, #2963A3)"/>
<path id="Vector_4" d="M36.0118 16.4975C35.6534 16.4853 35.3032 16.607 35.0281 16.8393C34.8939 16.9651 34.7893 17.1197 34.7217 17.2916C34.6542 17.4635 34.6255 17.6485 34.6377 17.833V34.6828C34.6246 34.8655 34.653 35.0488 34.7207 35.2187C34.7883 35.3887 34.8934 35.5408 35.0281 35.6635C35.3068 35.8875 35.6559 36.0032 36.0118 35.9895C36.3648 36.0047 36.7111 35.8887 36.9852 35.6635C37.1159 35.5384 37.2176 35.3855 37.2829 35.216C37.3481 35.0464 37.3753 34.8643 37.3626 34.6828V17.833C37.3746 17.6497 37.3471 17.4659 37.2819 17.2943C37.2168 17.1227 37.1155 16.9675 36.9852 16.8393C36.7148 16.6059 36.3673 16.4838 36.0118 16.4975V16.4975Z" fill="var(--fill-0, #2963A3)"/>
<path id="Vector_5" d="M50.5132 33.6995L45.2248 28.983L50.0292 24.5398C50.1684 24.4227 50.2815 24.2771 50.3609 24.1126C50.4403 23.9481 50.4842 23.7684 50.4898 23.5855C50.4812 23.2482 50.3446 22.9271 50.1082 22.6888C49.8717 22.4505 49.5537 22.3131 49.2198 22.3051C48.8833 22.3269 48.5665 22.4729 48.3297 22.7153L42.1772 28.5203V17.8331C42.1898 17.6496 42.1625 17.4657 42.0973 17.294C42.0321 17.1223 41.9306 16.9671 41.7998 16.8393C41.5304 16.6058 41.1837 16.4837 40.8291 16.4975C40.4699 16.4851 40.1187 16.6068 39.8427 16.8393C39.7086 16.9652 39.6039 17.1197 39.5364 17.2916C39.4688 17.4635 39.4401 17.6485 39.4523 17.8331V34.6592C39.4401 34.8441 39.4688 35.0295 39.5363 35.2018C39.6038 35.3742 39.7085 35.5292 39.8427 35.6556C40.1191 35.8871 40.4702 36.0078 40.8291 35.9947C41.1834 36.0092 41.5301 35.8881 41.7998 35.6556C41.9307 35.5272 42.0322 35.3715 42.0974 35.1994C42.1625 35.0274 42.1898 34.843 42.1772 34.6592V29.6113L48.897 35.6083C49.1413 35.853 49.4717 35.9901 49.8157 35.9895C49.9739 35.9903 50.1304 35.9567 50.2746 35.8909C50.4188 35.8251 50.5472 35.7287 50.6512 35.6083C50.8845 35.3666 51.0136 35.0414 51.0103 34.7039C51.0096 34.5091 50.9644 34.3171 50.8782 34.1429C50.7919 33.9687 50.6671 33.817 50.5132 33.6995V33.6995Z" fill="var(--fill-0, #2963A3)"/>
<path id="Vector_6" d="M15.3342 13.8211H22.3299C23.5217 13.8472 24.6993 13.5561 25.7445 12.9771C26.7189 12.4168 27.5075 11.5781 28.0113 10.5663C28.5602 9.43405 28.8324 8.1854 28.8051 6.925C28.8356 5.6567 28.5633 4.39964 28.0113 3.26006C27.5091 2.24578 26.7202 1.4049 25.7445 0.843938C24.6993 0.26495 23.5217 -0.0261003 22.3299 3.2508e-06H20.1203C18.9294 -0.0261327 17.7526 0.264934 16.7084 0.843938C15.7315 1.40338 14.9422 2.24467 14.4415 3.26006C13.8887 4.39941 13.6155 5.65649 13.6451 6.925V10.7792C13.6451 13.0008 14.2073 13.8211 15.3342 13.8211ZM17.3694 3.41781C18.0183 2.61156 18.9353 2.20843 20.1203 2.20843H22.3299C23.5167 2.20843 24.4345 2.61331 25.0834 3.42307C25.7324 4.23282 26.0559 5.40014 26.0542 6.925C26.0542 8.46915 25.735 9.64084 25.0965 10.4401C24.458 11.2393 23.5358 11.6398 22.3299 11.6416H16.4299C16.4299 11.6416 16.3961 8.46827 16.3961 6.925C16.3961 5.38173 16.7214 4.23019 17.3694 3.41781Z" fill="var(--fill-0, #2963A3)"/>
<path id="Vector_7" d="M29.6095 23.0229C28.5658 22.4421 27.3888 22.1501 26.1975 22.1763H23.9879C22.796 22.1514 21.6185 22.4433 20.5734 23.0229C19.5978 23.5827 18.8088 24.4228 18.3065 25.4363C17.7605 26.5776 17.4928 27.8342 17.5258 29.1013C17.4953 30.3605 17.763 31.6089 18.3065 32.7426C18.8096 33.7549 19.5984 34.5939 20.5734 35.1534C21.6187 35.7321 22.7962 36.0231 23.9879 35.9974H30.9837C32.1132 35.9974 32.6727 35.1771 32.6727 32.9476V29.1013C32.703 27.8327 32.4298 26.5755 31.8763 25.4363C31.3757 24.4217 30.5863 23.5812 29.6095 23.0229V23.0229ZM29.888 33.8179H23.9879C22.7855 33.8179 21.8634 33.4182 21.2214 32.619C20.5794 31.8198 20.2611 30.6472 20.2663 29.1013C20.2663 27.5729 20.5898 26.4056 21.237 25.5994C21.8842 24.7931 22.8012 24.3882 23.9879 24.3847H26.1975C27.3843 24.3847 28.3021 24.7896 28.951 25.5994C29.5999 26.4091 29.9261 27.5764 29.9296 29.1013C29.9296 30.6446 29.888 33.8179 29.888 33.8179V33.8179Z" fill="var(--fill-0, #2963A3)"/>
</g>
<defs>
<clipPath id="clip0_0_107">
<rect width="51" height="36" fill="white"/>
</clipPath>
</defs>
</svg>
