<svg preserveAspectRatio="none" width="100%" height="100%" overflow="visible" style="display: block;" viewBox="0 0 100 50" fill="none" xmlns="http://www.w3.org/2000/svg">
<g id="Group">
<path id="Vector" d="M83.4885 23.751C86.5246 19.2628 87.3877 15.3838 85.9966 13.9927C85.56 13.5662 84.8999 13.3428 84.0368 13.3428C82.138 13.3428 79.3354 14.409 76.2383 16.5008C77.5279 17.4959 78.8175 18.623 80.0868 19.8923C81.3561 21.1616 82.4934 22.4512 83.4783 23.7408L83.4885 23.751Z" fill="var(--fill-0, white)"/>
<path id="Vector_2" d="M69.9038 19.9023C71.1731 18.633 72.4627 17.4958 73.7523 16.5108C70.6552 14.419 67.8526 13.3528 65.9537 13.3528C65.1008 13.3528 64.4306 13.566 63.9939 14.0027C62.6028 15.3938 63.4659 19.2626 66.5021 23.761C67.4972 22.4714 68.6345 21.1818 69.8936 19.9125L69.9038 19.9023Z" fill="var(--fill-0, white)"/>
<path id="Vector_3" d="M82.5932 25C81.5981 23.6698 80.4202 22.2989 79.0595 20.9383C77.6988 19.5776 76.328 18.3997 74.9978 17.4045C73.6676 18.3997 72.2967 19.5776 70.9361 20.9383C69.5754 22.2989 68.3975 23.6698 67.4023 25C68.3975 26.3302 69.5754 27.7011 70.9361 29.0617C72.2967 30.4224 73.6676 31.6003 74.9978 32.5954C76.328 31.6003 77.6988 30.4224 79.0595 29.0617C80.4202 27.7011 81.5981 26.3302 82.5932 25Z" fill="var(--fill-0, white)"/>
<path id="Vector_4" d="M66.5138 26.249C63.4776 30.7372 62.6145 34.6162 64.0057 36.0073C65.3968 37.3985 69.2656 36.5354 73.764 33.4891C72.4744 32.4939 71.1848 31.3567 69.9155 30.0975C68.6462 28.8282 67.5089 27.5386 66.5239 26.249H66.5138Z" fill="var(--fill-0, white)"/>
<path id="Vector_5" d="M52.2847 0H12.5C5.59505 0 0 5.59505 0 12.5V37.5C0 44.405 5.59505 50 12.5 50H87.5C94.405 50 100 44.405 100 37.5V0H52.2847ZM50 48.5378H12.5C6.41755 48.5378 1.46223 43.5825 1.46223 37.5V12.5C1.46223 6.41755 6.41755 1.46223 12.5 1.46223H50V48.5378ZM87.0329 37.0329C86.3119 37.7539 85.2762 38.0991 84.0475 38.0991C81.6206 38.0991 78.3814 36.7689 75 34.3928C71.6186 36.7689 68.3794 38.0991 65.9525 38.0991C64.7136 38.0991 63.6881 37.7539 62.9671 37.0329C60.8245 34.8903 62.0126 30.1076 65.5971 25C62.0126 19.8924 60.8245 15.1097 62.9671 12.9671C65.1097 10.8245 69.8924 12.0126 75 15.5971C80.1076 12.0126 84.8903 10.8245 87.0329 12.9671C89.1755 15.1097 87.9874 19.8924 84.4029 25C87.9874 30.1076 89.1755 34.8903 87.0329 37.0329Z" fill="var(--fill-0, white)"/>
<path id="Vector_6" d="M80.0985 30.0975C78.8292 31.3668 77.5396 32.5041 76.25 33.4891C80.7382 36.5252 84.6172 37.3883 86.0083 36.0073C87.3995 34.6162 86.5364 30.7474 83.5002 26.249C82.5051 27.5386 81.3678 28.8282 80.1087 30.0975H80.0985Z" fill="var(--fill-0, white)"/>
<path id="Vector_7" d="M10.5504 15.2113C9.21004 16.8867 8.61093 19.1715 9.02726 21.0297C10.1036 25.8429 14.5715 26.6146 17.8514 27.0411C20.4407 27.3762 22.9184 27.8534 22.8575 30.1585C22.7864 32.5549 20.0853 33.1438 18.3083 33.1438C13.6881 33.1438 13.5358 29.732 13.5358 29.732H8.57031C8.64139 31.0114 9.02726 33.0728 10.6113 34.8396C12.3376 36.7791 14.9371 37.7539 18.3185 37.7539C20.918 37.7539 23.284 36.9111 24.9696 35.4083V37.4696H29.6V31.5699L31.2348 29.7726L35.916 37.4696H41.3079L34.4944 26.2084L41.3079 18.745H35.3067L29.6 25.0001V12.5001H24.9696V15.526C24.8173 15.3331 24.6548 15.1402 24.4822 14.9472C22.7966 13.1601 20.3697 12.2563 17.2624 12.2563C13.6779 12.2563 11.6369 13.8607 10.5504 15.2113V15.2113ZM17.3437 16.5923C19.4253 16.5923 21.5069 17.0594 22.299 19.9533H24.9594V24.3806C21.639 21.6491 14.4294 23.3652 13.6576 19.9635C13.2515 18.1763 15.0285 16.5923 17.3437 16.5923V16.5923Z" fill="var(--fill-0, white)"/>
</g>
</svg>
