<svg width="16" height="14" viewBox="0 0 16 14" fill="none" xmlns="http://www.w3.org/2000/svg" aria-hidden="true">
  <path d="M0.283 6.769L3.969 8.164L5.396 12.815C5.488 13.113 5.847 13.223 6.086 13.025L8.141 11.327C8.356 11.149 8.663 11.14 8.888 11.306L12.595 14.033C12.85 14.221 13.211 14.079 13.275 13.767L15.991 0.531C16.06 0.189 15.73 -0.095 15.409 0.03L0.278 5.945C-0.095 6.091 -0.092 6.627 0.283 6.769ZM5.166 7.422L12.372 2.924C12.501 2.844 12.634 3.021 12.523 3.126L6.577 8.727C6.368 8.924 6.233 9.188 6.195 9.475L5.992 10.996C5.965 11.199 5.684 11.219 5.628 11.023L4.849 8.249C4.76 7.932 4.89 7.594 5.166 7.422Z" fill="#333333"/>
</svg>
