<svg width="18" height="18" viewBox="0 0 18 18" fill="none" xmlns="http://www.w3.org/2000/svg" aria-hidden="true">
  <path d="M17.47 3.713C16.834 3.995 16.159 4.18 15.469 4.262C16.197 3.826 16.742 3.141 17.002 2.333C16.319 2.74 15.569 3.025 14.789 3.179C14.264 2.618 13.569 2.246 12.811 2.12C12.053 1.995 11.275 2.124 10.598 2.486C9.921 2.849 9.382 3.425 9.066 4.125C8.75 4.825 8.674 5.61 8.85 6.357C7.464 6.288 6.109 5.928 4.871 5.3C3.634 4.673 2.542 3.793 1.667 2.716C1.357 3.248 1.194 3.853 1.195 4.468C1.195 5.677 1.81 6.744 2.745 7.369C2.192 7.352 1.651 7.202 1.167 6.933V6.977C1.167 7.781 1.446 8.561 1.955 9.184C2.465 9.807 3.174 10.235 3.963 10.394C3.449 10.533 2.91 10.554 2.388 10.454C2.61 11.147 3.044 11.753 3.627 12.187C4.211 12.621 4.916 12.861 5.644 12.875C4.921 13.443 4.093 13.862 3.208 14.11C2.322 14.358 1.397 14.428 0.484 14.318C2.077 15.343 3.932 15.887 5.826 15.885C12.237 15.885 15.743 10.574 15.743 5.968C15.743 5.818 15.739 5.667 15.732 5.518C16.414 5.025 17.003 4.414 17.471 3.714L17.47 3.713Z" fill="#333333"/>
</svg>
