<svg width="20" height="12" viewBox="0 0 20 12" fill="none" xmlns="http://www.w3.org/2000/svg" aria-hidden="true">
  <path d="M19.822 10.541C19.768 10.448 19.436 9.7 17.835 8.162C16.16 6.551 16.385 6.813 18.403 4.028C19.632 2.332 20.123 1.296 19.969 0.853C19.823 0.431 18.919 0.543 18.919 0.543L15.914 0.561C15.914 0.561 15.691 0.53 15.525 0.632C15.364 0.733 15.26 0.966 15.26 0.966C15.26 0.966 14.784 2.279 14.149 3.395C12.81 5.75 12.274 5.874 12.055 5.728C11.546 5.387 11.674 4.358 11.674 3.628C11.674 1.345 12.007 0.394 11.022 0.148C10.695 0.066 10.455 0.012 9.618 0.003C8.546 -0.009 7.637 0.007 7.123 0.267C6.781 0.44 6.517 0.827 6.678 0.849C6.877 0.877 7.327 0.975 7.566 1.312C7.875 1.745 7.863 2.721 7.863 2.721C7.863 2.721 8.041 5.408 7.45 5.742C7.043 5.971 6.487 5.504 5.293 3.366C4.682 2.272 4.219 1.062 4.219 1.062C4.219 1.062 4.131 0.836 3.972 0.716C3.779 0.57 3.509 0.523 3.509 0.523L0.652 0.541C0.652 0.541 0.223 0.554 0.065 0.747C-0.075 0.919 0.054 1.274 0.054 1.274C0.054 1.274 2.292 6.695 4.824 9.428C7.148 11.933 9.786 11.768 9.786 11.768H10.981C10.981 11.768 11.342 11.727 11.526 11.521C11.696 11.332 11.69 10.977 11.69 10.977C11.69 10.977 11.666 9.316 12.411 9.072C13.145 8.831 14.088 10.677 15.086 11.388C15.841 11.925 16.415 11.807 16.415 11.807L19.087 11.768C19.087 11.768 20.484 11.679 19.822 10.541Z" fill="#333333"/>
</svg>
