<svg width="32" height="32" viewBox="0 0 32 32" fill="none" xmlns="http://www.w3.org/2000/svg" aria-hidden="true">
  <path d="M0 16C0 7.163 7.163 0 16 0C24.837 0 32 7.163 32 16C32 24.837 24.837 32 16 32C7.163 32 0 24.837 0 16Z" fill="#333333"/>
  <path fill-rule="evenodd" clip-rule="evenodd" d="M15.676 0C15.601 6.583 15.17 10.266 12.718 12.718C10.266 15.17 6.583 15.601 0 15.676V16.632C6.583 16.707 10.266 17.137 12.718 19.589C15.132 22.003 15.587 25.61 15.672 32H16.635C16.721 25.61 17.176 22.003 19.589 19.589C22.003 17.176 25.61 16.721 32 16.635V15.672C25.61 15.587 22.003 15.132 19.589 12.718C17.138 10.266 16.707 6.583 16.632 0H15.676Z" fill="#FFFFFF"/>
</svg>
